<svg xmlns="http://www.w3.org/2000/svg" xmlns:xlink="http://www.w3.org/1999/xlink" width="500" zoomAndPan="magnify" viewBox="0 0 375 63.749997" height="85" preserveAspectRatio="xMidYMid meet" version="1.0"><defs><g/><clipPath id="916157508a"><path d="M 323 34 L 365 34 L 365 61 L 323 61 Z M 323 34 " clip-rule="nonzero"/></clipPath><clipPath id="a93c23405c"><path d="M 370.195312 48.472656 L 334.625 68.007812 L 321.703125 44.484375 L 357.273438 24.945312 Z M 370.195312 48.472656 " clip-rule="nonzero"/></clipPath><clipPath id="668d13eda1"><path d="M 364.011719 41.339844 C 357.652344 53.582031 356.828125 54.511719 355.417969 55.671875 C 353.746094 57.167969 351.527344 58.964844 349.246094 59.832031 C 346.921875 60.628906 344.289062 61.015625 341.640625 60.738281 C 339.039062 60.535156 335.867188 59.300781 333.550781 58.167969 C 331.496094 57.179688 329.714844 56.046875 328.265625 54.535156 C 326.742188 53.0625 325.15625 51.148438 324.496094 49.300781 C 323.890625 47.710938 323.574219 45.671875 324.195312 44.371094 C 324.746094 43.109375 326.648438 41.871094 327.835938 41.601562 C 328.886719 41.410156 330.15625 41.769531 331.078125 42.320312 C 332.003906 42.871094 332.953125 43.789062 333.34375 44.824219 C 333.789062 46.117188 333.84375 48.492188 333.117188 49.757812 C 332.457031 50.984375 330.433594 52 329.121094 52.046875 C 328.03125 52.164062 326.859375 51.65625 326.003906 51.066406 C 325.175781 50.371094 324.292969 49.414062 324 48.226562 C 323.730469 46.933594 324.03125 44.558594 324.664062 43.441406 C 325.308594 42.511719 326.292969 41.875 327.34375 41.679688 C 328.613281 41.558594 330.496094 42.066406 331.976562 42.980469 C 333.757812 44.117188 335.160156 47.480469 337.023438 48.765625 C 338.804688 49.898438 340.984375 50.625 342.824219 50.574219 C 344.734375 50.488281 346.703125 49.695312 348.359375 48.496094 C 350.042969 47.1875 351.625 44.875 352.792969 42.792969 C 353.964844 40.707031 354.511719 37.332031 355.554688 35.988281 C 356.105469 35.207031 356.503906 34.796875 357.265625 34.566406 C 358.195312 34.152344 359.753906 34.066406 360.734375 34.394531 C 361.496094 34.648438 362.203125 35.125 362.773438 35.675781 C 363.34375 36.230469 363.816406 36.929688 364.015625 37.78125 C 364.296875 38.78125 364.011719 41.339844 364.011719 41.339844 " clip-rule="nonzero"/></clipPath><clipPath id="7f156ae917"><path d="M 321 38 L 342 38 L 342 60 L 321 60 Z M 321 38 " clip-rule="nonzero"/></clipPath><clipPath id="a39337b645"><path d="M 333.828125 62.808594 L 316.976562 56.523438 L 325.335938 34.117188 L 342.183594 40.402344 Z M 333.828125 62.808594 " clip-rule="nonzero"/></clipPath><clipPath id="8e4f17ba31"><path d="M 321.875 55.855469 C 322.09375 47.785156 321.289062 46.898438 321.394531 45.675781 C 321.53125 44.382812 322.011719 42.628906 323.347656 41.613281 C 325.8125 39.679688 334.730469 38.214844 337.703125 38.902344 C 339.289062 39.324219 340.578125 40.3125 340.964844 41.378906 C 341.273438 42.417969 340.425781 44.457031 339.816406 45.152344 C 339.394531 45.582031 338.847656 45.882812 338.257812 45.832031 C 337.179688 45.679688 334.238281 43.746094 333.984375 42.558594 C 333.722656 41.621094 334.605469 40.183594 335.339844 39.617188 C 335.894531 39.070312 336.75 38.882812 337.519531 38.917969 C 338.214844 38.925781 339.085938 39.167969 339.691406 39.644531 C 340.347656 40.226562 341.082031 41.761719 341.113281 42.613281 C 341.171875 43.390625 340.71875 44.144531 340.265625 44.648438 C 339.789062 45.226562 339.082031 45.71875 338.359375 45.785156 C 337.429688 45.941406 335.816406 45.59375 335.113281 44.910156 C 334.40625 44.226562 333.824219 42.75 334 41.808594 C 334.101562 40.835938 335.085938 39.605469 336.019531 39.199219 C 336.855469 38.839844 338.523438 39.039062 339.335938 39.429688 C 340.074219 39.789062 340.921875 41.027344 340.867188 41.175781 C 340.734375 41.292969 336.769531 39.058594 336.796875 38.984375 C 336.855469 38.839844 339.34375 39.179688 340.019531 39.933594 C 340.773438 40.71875 341.109375 42.863281 340.828125 43.847656 C 340.628906 44.617188 339.921875 45.109375 339.0625 45.542969 C 337.550781 46.324219 334.113281 46.890625 331.972656 47.015625 C 330.296875 47.0625 328.234375 47.21875 327.480469 46.433594 C 326.804688 45.675781 327.027344 42.734375 327.285156 42.746094 C 327.492188 42.65625 328.453125 44.527344 328.777344 45.992188 C 329.308594 48.542969 329.179688 54.964844 328.410156 57.03125 C 328.054688 57.992188 327.605469 58.496094 326.953125 58.839844 C 326.375 59.214844 325.371094 59.34375 324.703125 59.261719 C 323.957031 59.152344 323.121094 58.585938 322.617188 58.0625 C 322.144531 57.46875 321.875 55.855469 321.875 55.855469 " clip-rule="nonzero"/></clipPath><clipPath id="15c2289d2d"><path d="M 320 11 L 361 11 L 361 38 L 320 38 Z M 320 11 " clip-rule="nonzero"/></clipPath><clipPath id="39f4038020"><path d="M 314.101562 23.363281 L 349.707031 3.890625 L 362.585938 27.441406 L 326.980469 46.914062 Z M 314.101562 23.363281 " clip-rule="nonzero"/></clipPath><clipPath id="f9afb82b58"><path d="M 320.273438 30.507812 C 326.65625 18.277344 327.480469 17.347656 328.894531 16.191406 C 330.566406 14.699219 332.789062 12.90625 335.074219 12.042969 C 337.398438 11.25 340.035156 10.867188 342.679688 11.148438 C 345.28125 11.355469 348.453125 12.597656 350.761719 13.734375 C 352.816406 14.726562 354.59375 15.863281 356.042969 17.375 C 357.5625 18.851562 359.144531 20.769531 359.800781 22.621094 C 360.40625 24.210938 360.71875 26.246094 360.097656 27.546875 C 359.542969 28.8125 357.636719 30.046875 356.449219 30.3125 C 355.398438 30.503906 354.132812 30.136719 353.207031 29.585938 C 352.285156 29.035156 351.335938 28.113281 350.945312 27.078125 C 350.503906 25.785156 350.453125 23.410156 351.183594 22.148438 C 351.847656 20.921875 353.871094 19.910156 355.183594 19.863281 C 356.273438 19.746094 357.445312 20.261719 358.300781 20.847656 C 359.125 21.546875 360.007812 22.507812 360.300781 23.691406 C 360.5625 24.988281 360.261719 27.363281 359.625 28.476562 C 358.976562 29.40625 357.992188 30.042969 356.941406 30.234375 C 355.671875 30.351562 353.792969 29.84375 352.3125 28.925781 C 350.53125 27.785156 349.136719 24.421875 347.277344 23.132812 C 345.496094 21.992188 343.320312 21.265625 341.476562 21.3125 C 339.566406 21.394531 337.597656 22.183594 335.9375 23.378906 C 334.25 24.6875 332.667969 26.992188 331.492188 29.074219 C 330.320312 31.15625 329.765625 34.535156 328.71875 35.875 C 328.167969 36.65625 327.769531 37.066406 327.003906 37.292969 C 326.074219 37.703125 324.519531 37.785156 323.539062 37.457031 C 322.777344 37.203125 322.070312 36.726562 321.503906 36.171875 C 320.933594 35.621094 320.460938 34.917969 320.261719 34.066406 C 319.980469 33.066406 320.273438 30.507812 320.273438 30.507812 " clip-rule="nonzero"/></clipPath><clipPath id="bff6beb453"><path d="M 343 12 L 363 12 L 363 34 L 343 34 Z M 343 12 " clip-rule="nonzero"/></clipPath><clipPath id="3af163bcfe"><path d="M 350.496094 9.09375 L 367.335938 15.40625 L 358.9375 37.800781 L 342.097656 31.484375 Z M 350.496094 9.09375 " clip-rule="nonzero"/></clipPath><clipPath id="b780872f60"><path d="M 362.4375 16.070312 C 362.203125 24.140625 363.003906 25.027344 362.894531 26.25 C 362.757812 27.542969 362.277344 29.296875 360.9375 30.308594 C 358.46875 32.238281 349.546875 33.6875 346.578125 32.992188 C 344.992188 32.566406 343.707031 31.578125 343.320312 30.511719 C 343.011719 29.46875 343.863281 27.433594 344.472656 26.738281 C 344.898438 26.308594 345.445312 26.007812 346.035156 26.0625 C 347.113281 26.214844 350.050781 28.15625 350.300781 29.34375 C 350.5625 30.28125 349.675781 31.714844 348.941406 32.28125 C 348.382812 32.828125 347.53125 33.015625 346.757812 32.976562 C 346.0625 32.96875 345.195312 32.726562 344.589844 32.246094 C 343.933594 31.664062 343.203125 30.128906 343.171875 29.277344 C 343.113281 28.5 343.570312 27.746094 344.023438 27.242188 C 344.5 26.664062 345.207031 26.171875 345.929688 26.109375 C 346.863281 25.953125 348.476562 26.304688 349.179688 26.988281 C 349.882812 27.675781 350.460938 29.152344 350.285156 30.09375 C 350.179688 31.066406 349.195312 32.292969 348.257812 32.699219 C 347.425781 33.058594 345.757812 32.851562 344.945312 32.464844 C 344.207031 32.101562 343.363281 30.863281 343.417969 30.714844 C 343.550781 30.597656 347.507812 32.835938 347.480469 32.910156 C 347.425781 33.058594 344.9375 32.714844 344.261719 31.957031 C 343.507812 31.167969 343.179688 29.027344 343.460938 28.039062 C 343.660156 27.273438 344.371094 26.785156 345.230469 26.347656 C 346.742188 25.570312 350.183594 25.011719 352.324219 24.890625 C 353.996094 24.84375 356.0625 24.695312 356.8125 25.480469 C 357.488281 26.238281 357.257812 29.179688 357 29.167969 C 356.792969 29.257812 355.835938 27.386719 355.515625 25.917969 C 354.988281 23.367188 355.128906 16.945312 355.902344 14.882812 C 356.261719 13.921875 356.710938 13.417969 357.363281 13.074219 C 357.941406 12.703125 358.949219 12.578125 359.617188 12.660156 C 360.359375 12.769531 361.195312 13.335938 361.695312 13.859375 C 362.167969 14.457031 362.4375 16.070312 362.4375 16.070312 " clip-rule="nonzero"/></clipPath></defs><g fill="#ff4000" fill-opacity="1"><g transform="translate(-1.766409, 61.4274)"><g><path d="M 40.328125 -60.3125 C 44.066406 -60.3125 47.394531 -59.445312 50.3125 -57.71875 C 53.238281 -56 55.519531 -53.632812 57.15625 -50.625 C 58.789062 -47.613281 59.609375 -44.238281 59.609375 -40.5 L 59.609375 -39.359375 C 59.609375 -35.617188 58.789062 -32.226562 57.15625 -29.1875 C 55.519531 -26.15625 53.238281 -23.773438 50.3125 -22.046875 C 47.394531 -20.328125 44.066406 -19.46875 40.328125 -19.46875 L 25.859375 -19.46875 L 25.859375 0 L 6.484375 0 L 6.484375 -60.3125 Z M 25.859375 -33.578125 L 33.84375 -33.578125 C 35.882812 -33.578125 37.414062 -34.101562 38.4375 -35.15625 C 39.46875 -36.207031 39.984375 -37.640625 39.984375 -39.453125 L 39.984375 -40.15625 C 39.984375 -42.019531 39.46875 -43.460938 38.4375 -44.484375 C 37.414062 -45.515625 35.882812 -46.03125 33.84375 -46.03125 L 25.859375 -46.03125 Z M 25.859375 -33.578125 "/></g></g></g><g fill="#ff4000" fill-opacity="1"><g transform="translate(56.532205, 61.4274)"><g><path d="M 29.1875 -47.34375 C 37.664062 -47.34375 44.140625 -45.351562 48.609375 -41.375 C 53.085938 -37.40625 55.328125 -31.328125 55.328125 -23.140625 L 55.328125 -20.171875 L 20.609375 -20.171875 C 20.609375 -16.835938 21.351562 -14.320312 22.84375 -12.625 C 24.332031 -10.925781 26.679688 -10.078125 29.890625 -10.078125 C 32.816406 -10.078125 34.96875 -10.691406 36.34375 -11.921875 C 37.71875 -13.148438 38.40625 -14.785156 38.40625 -16.828125 L 55.328125 -16.828125 C 55.328125 -11.222656 53.191406 -6.84375 48.921875 -3.6875 C 44.648438 -0.53125 38.425781 1.046875 30.25 1.046875 C 21.65625 1.046875 14.988281 -0.953125 10.25 -4.953125 C 5.519531 -8.953125 3.15625 -15.015625 3.15625 -23.140625 C 3.15625 -31.085938 5.460938 -37.109375 10.078125 -41.203125 C 14.703125 -45.296875 21.070312 -47.34375 29.1875 -47.34375 Z M 29.890625 -36.203125 C 24.398438 -36.203125 21.332031 -33.601562 20.6875 -28.40625 L 37.703125 -28.40625 C 37.703125 -30.800781 37.015625 -32.695312 35.640625 -34.09375 C 34.265625 -35.5 32.347656 -36.203125 29.890625 -36.203125 Z M 29.890625 -36.203125 "/></g></g></g><g fill="#ff4000" fill-opacity="1"><g transform="translate(110.009092, 61.4274)"><g><path d="M 33.40625 -47.4375 C 34.75 -47.4375 35.945312 -47.273438 37 -46.953125 C 38.050781 -46.628906 38.578125 -46.4375 38.578125 -46.375 L 38.578125 -31.734375 L 32.96875 -31.734375 C 29.34375 -31.734375 26.722656 -30.796875 25.109375 -28.921875 C 23.503906 -27.054688 22.703125 -24.285156 22.703125 -20.609375 L 22.703125 0 L 5.265625 0 L 5.265625 -46.296875 L 19.546875 -46.296875 L 20.6875 -39.28125 C 21.738281 -41.96875 23.40625 -44 25.6875 -45.375 C 27.96875 -46.75 30.539062 -47.4375 33.40625 -47.4375 Z M 33.40625 -47.4375 "/></g></g></g><g fill="#ff4000" fill-opacity="1"><g transform="translate(143.936006, 61.4274)"><g><path d="M 66.71875 -47.34375 C 71.976562 -47.34375 75.921875 -45.835938 78.546875 -42.828125 C 81.179688 -39.816406 82.5 -35.535156 82.5 -29.984375 L 82.5 0 L 65.046875 0 L 65.046875 -27.875 C 65.046875 -29.863281 64.5625 -31.457031 63.59375 -32.65625 C 62.632812 -33.851562 61.28125 -34.453125 59.53125 -34.453125 C 57.476562 -34.453125 55.8125 -33.75 54.53125 -32.34375 C 53.25 -30.945312 52.609375 -29.222656 52.609375 -27.171875 L 52.609375 0 L 35.15625 0 L 35.15625 -27.875 C 35.15625 -29.863281 34.671875 -31.457031 33.703125 -32.65625 C 32.742188 -33.851562 31.390625 -34.453125 29.640625 -34.453125 C 27.585938 -34.453125 25.914062 -33.75 24.625 -32.34375 C 23.34375 -30.945312 22.703125 -29.222656 22.703125 -27.171875 L 22.703125 0 L 5.265625 0 L 5.265625 -46.296875 L 19.546875 -46.296875 L 20.6875 -39.359375 C 22.445312 -41.816406 24.769531 -43.757812 27.65625 -45.1875 C 30.550781 -46.625 33.609375 -47.34375 36.828125 -47.34375 C 43.773438 -47.34375 48.445312 -44.679688 50.84375 -39.359375 C 52.65625 -41.816406 54.976562 -43.757812 57.8125 -45.1875 C 60.65625 -46.625 63.625 -47.34375 66.71875 -47.34375 Z M 66.71875 -47.34375 "/></g></g></g><g fill="#ff4000" fill-opacity="1"><g transform="translate(226.606336, 61.4274)"><g><path d="M 38.84375 0 L 37.703125 -7.015625 C 35.890625 -4.503906 33.503906 -2.53125 30.546875 -1.09375 C 27.597656 0.332031 24.488281 1.046875 21.21875 1.046875 C 15.84375 1.046875 11.804688 -0.441406 9.109375 -3.421875 C 6.421875 -6.398438 5.078125 -10.695312 5.078125 -16.3125 L 5.078125 -46.296875 L 22.53125 -46.296875 L 22.53125 -18.40625 C 22.53125 -16.425781 23.039062 -14.832031 24.0625 -13.625 C 25.082031 -12.425781 26.53125 -11.828125 28.40625 -11.828125 C 30.570312 -11.828125 32.328125 -12.53125 33.671875 -13.9375 C 35.015625 -15.34375 35.6875 -17.066406 35.6875 -19.109375 L 35.6875 -46.296875 L 53.125 -46.296875 L 53.125 0 Z M 38.84375 0 "/></g></g></g><g fill="#ff4000" fill-opacity="1"><g transform="translate(280.083212, 61.4274)"><g><path d="M 36.125 -46.296875 L 36.125 -34.453125 L 26.296875 -34.453125 L 26.296875 -16.828125 C 26.296875 -14.722656 26.644531 -13.1875 27.34375 -12.21875 C 28.050781 -11.257812 29.34375 -10.78125 31.21875 -10.78125 L 36.125 -10.78125 L 36.125 -0.53125 C 34.71875 -0.0625 32.90625 0.316406 30.6875 0.609375 C 28.46875 0.898438 26.539062 1.046875 24.90625 1.046875 C 19.757812 1.046875 15.796875 0.113281 13.015625 -1.75 C 10.242188 -3.625 8.859375 -6.8125 8.859375 -11.3125 L 8.859375 -34.453125 L 2.359375 -34.453125 L 2.359375 -46.296875 L 9.5625 -46.296875 L 13.328125 -60.3125 L 26.296875 -60.3125 L 26.296875 -46.296875 Z M 36.125 -46.296875 "/></g></g></g><g fill="#ff4000" fill-opacity="1"><g transform="translate(314.011739, 61.4274)"><g/></g></g><g fill="#ff4000" fill-opacity="1"><g transform="translate(338.2075, 61.4274)"><g/></g></g><g fill="#ff4000" fill-opacity="1"><g transform="translate(362.40326, 61.4274)"><g/></g></g><g clip-path="url(#916157508a)"><g clip-path="url(#a93c23405c)"><g clip-path="url(#668d13eda1)"><path fill="#201e1f" d="M 374.257812 49.9375 L 333.457031 72.347656 L 317.476562 43.253906 L 358.277344 20.84375 Z M 374.257812 49.9375 " fill-opacity="1" fill-rule="nonzero"/></g></g></g><g clip-path="url(#7f156ae917)"><g clip-path="url(#a39337b645)"><g clip-path="url(#8e4f17ba31)"><path fill="#201e1f" d="M 335.773438 66.75 L 313.191406 58.328125 L 323.6875 30.1875 L 346.269531 38.609375 Z M 335.773438 66.75 " fill-opacity="1" fill-rule="nonzero"/></g></g></g><g clip-path="url(#15c2289d2d)"><g clip-path="url(#39f4038020)"><g clip-path="url(#f9afb82b58)"><path fill="#201e1f" d="M 310.042969 21.890625 L 350.882812 -0.445312 L 366.8125 28.675781 L 325.972656 51.011719 Z M 310.042969 21.890625 " fill-opacity="1" fill-rule="nonzero"/></g></g></g><g clip-path="url(#bff6beb453)"><g clip-path="url(#3af163bcfe)"><g clip-path="url(#b780872f60)"><path fill="#201e1f" d="M 348.558594 5.148438 L 371.125 13.613281 L 360.578125 41.734375 L 338.007812 33.269531 Z M 348.558594 5.148438 " fill-opacity="1" fill-rule="nonzero"/></g></g></g></svg>