<svg xmlns="http://www.w3.org/2000/svg" xmlns:xlink="http://www.w3.org/1999/xlink" width="500" zoomAndPan="magnify" viewBox="0 0 375 374.999991" height="500" preserveAspectRatio="xMidYMid meet" version="1.0"><defs><g/><clipPath id="8637a33a82"><path d="M 299 188 L 333 188 L 333 211 L 299 211 Z M 299 188 " clip-rule="nonzero"/></clipPath><clipPath id="bc98e97856"><path d="M 337.527344 200.226562 L 308.640625 216.09375 L 298.148438 196.988281 L 327.03125 181.121094 Z M 337.527344 200.226562 " clip-rule="nonzero"/></clipPath><clipPath id="4ad8f1f975"><path d="M 332.507812 194.433594 C 327.339844 204.375 326.671875 205.132812 325.527344 206.074219 C 324.167969 207.289062 322.367188 208.746094 320.511719 209.453125 C 318.625 210.097656 316.488281 210.414062 314.339844 210.1875 C 312.226562 210.023438 309.648438 209.019531 307.769531 208.097656 C 306.101562 207.296875 304.65625 206.375 303.476562 205.152344 C 302.242188 203.957031 300.953125 202.398438 300.417969 200.898438 C 299.925781 199.609375 299.667969 197.953125 300.171875 196.898438 C 300.617188 195.871094 302.164062 194.867188 303.128906 194.648438 C 303.980469 194.492188 305.011719 194.785156 305.761719 195.230469 C 306.511719 195.675781 307.285156 196.421875 307.601562 197.265625 C 307.960938 198.316406 308.007812 200.242188 307.414062 201.269531 C 306.878906 202.265625 305.234375 203.089844 304.171875 203.128906 C 303.285156 203.226562 302.335938 202.8125 301.640625 202.335938 C 300.964844 201.765625 300.25 200.988281 300.011719 200.027344 C 299.796875 198.976562 300.039062 197.046875 300.550781 196.140625 C 301.074219 195.386719 301.875 194.867188 302.730469 194.710938 C 303.761719 194.613281 305.285156 195.023438 306.492188 195.765625 C 307.9375 196.691406 309.074219 199.421875 310.589844 200.464844 C 312.035156 201.386719 313.804688 201.976562 315.300781 201.933594 C 316.851562 201.863281 318.449219 201.21875 319.792969 200.246094 C 321.160156 199.183594 322.445312 197.308594 323.394531 195.613281 C 324.34375 193.921875 324.789062 191.179688 325.636719 190.089844 C 326.082031 189.453125 326.40625 189.121094 327.027344 188.933594 C 327.78125 188.597656 329.046875 188.53125 329.84375 188.792969 C 330.460938 189 331.035156 189.386719 331.5 189.835938 C 331.960938 190.285156 332.347656 190.851562 332.507812 191.542969 C 332.738281 192.355469 332.507812 194.433594 332.507812 194.433594 " clip-rule="nonzero"/></clipPath><clipPath id="14c247b9cb"><path d="M 297 192 L 314 192 L 314 210 L 297 210 Z M 297 192 " clip-rule="nonzero"/></clipPath><clipPath id="60c80e026a"><path d="M 307.992188 211.871094 L 294.308594 206.769531 L 301.097656 188.570312 L 314.78125 193.675781 Z M 307.992188 211.871094 " clip-rule="nonzero"/></clipPath><clipPath id="5ade7b9fc3"><path d="M 298.285156 206.222656 C 298.464844 199.671875 297.8125 198.949219 297.898438 197.957031 C 298.007812 196.90625 298.398438 195.484375 299.484375 194.660156 C 301.484375 193.085938 308.726562 191.898438 311.140625 192.457031 C 312.425781 192.800781 313.472656 193.601562 313.789062 194.46875 C 314.039062 195.3125 313.351562 196.96875 312.859375 197.535156 C 312.515625 197.882812 312.070312 198.125 311.589844 198.082031 C 310.714844 197.960938 308.328125 196.390625 308.121094 195.425781 C 307.910156 194.664062 308.625 193.5 309.222656 193.039062 C 309.671875 192.59375 310.367188 192.441406 310.992188 192.472656 C 311.558594 192.476562 312.261719 192.671875 312.753906 193.058594 C 313.289062 193.53125 313.886719 194.777344 313.910156 195.46875 C 313.957031 196.101562 313.589844 196.714844 313.222656 197.125 C 312.835938 197.59375 312.261719 197.992188 311.675781 198.046875 C 310.917969 198.175781 309.609375 197.890625 309.035156 197.335938 C 308.464844 196.78125 307.992188 195.582031 308.132812 194.816406 C 308.214844 194.027344 309.011719 193.027344 309.773438 192.699219 C 310.449219 192.40625 311.804688 192.570312 312.46875 192.882812 C 313.066406 193.175781 313.753906 194.183594 313.707031 194.300781 C 313.601562 194.398438 310.382812 192.585938 310.40625 192.523438 C 310.449219 192.40625 312.472656 192.679688 313.023438 193.296875 C 313.632812 193.933594 313.90625 195.671875 313.675781 196.472656 C 313.515625 197.097656 312.941406 197.496094 312.242188 197.851562 C 311.015625 198.484375 308.222656 198.945312 306.484375 199.046875 C 305.125 199.085938 303.449219 199.210938 302.839844 198.574219 C 302.289062 197.957031 302.472656 195.570312 302.679688 195.578125 C 302.847656 195.507812 303.628906 197.023438 303.894531 198.214844 C 304.324219 200.285156 304.21875 205.5 303.59375 207.179688 C 303.304688 207.957031 302.9375 208.367188 302.410156 208.648438 C 301.941406 208.949219 301.125 209.054688 300.582031 208.988281 C 299.976562 208.902344 299.300781 208.441406 298.890625 208.015625 C 298.503906 207.53125 298.285156 206.222656 298.285156 206.222656 " clip-rule="nonzero"/></clipPath><clipPath id="6415369b9c"><path d="M 296 169 L 330 169 L 330 192 L 296 192 Z M 296 169 " clip-rule="nonzero"/></clipPath><clipPath id="c1d03323b4"><path d="M 291.972656 179.835938 L 320.886719 164.023438 L 331.34375 183.144531 L 302.429688 198.957031 Z M 291.972656 179.835938 " clip-rule="nonzero"/></clipPath><clipPath id="71c58eddef"><path d="M 296.980469 185.636719 C 302.164062 175.703125 302.835938 174.949219 303.984375 174.007812 C 305.34375 172.796875 307.148438 171.34375 309 170.640625 C 310.890625 170 313.027344 169.6875 315.175781 169.914062 C 317.289062 170.085938 319.863281 171.09375 321.742188 172.015625 C 323.410156 172.820312 324.855469 173.746094 326.03125 174.972656 C 327.261719 176.171875 328.550781 177.726562 329.082031 179.230469 C 329.570312 180.523438 329.828125 182.175781 329.320312 183.234375 C 328.871094 184.257812 327.324219 185.261719 326.359375 185.476562 C 325.503906 185.632812 324.476562 185.335938 323.726562 184.886719 C 322.976562 184.441406 322.207031 183.691406 321.890625 182.851562 C 321.53125 181.800781 321.488281 179.875 322.082031 178.847656 C 322.621094 177.851562 324.265625 177.03125 325.332031 176.992188 C 326.21875 176.898438 327.167969 177.316406 327.863281 177.792969 C 328.535156 178.359375 329.25 179.140625 329.484375 180.101562 C 329.699219 181.152344 329.453125 183.082031 328.9375 183.988281 C 328.414062 184.742188 327.613281 185.257812 326.757812 185.414062 C 325.726562 185.511719 324.203125 185.097656 323 184.351562 C 321.554688 183.425781 320.421875 180.691406 318.910156 179.648438 C 317.464844 178.722656 315.695312 178.128906 314.199219 178.167969 C 312.648438 178.238281 311.050781 178.878906 309.703125 179.847656 C 308.332031 180.910156 307.046875 182.78125 306.09375 184.472656 C 305.140625 186.164062 304.691406 188.90625 303.839844 189.992188 C 303.394531 190.628906 303.070312 190.960938 302.449219 191.144531 C 301.695312 191.480469 300.429688 191.546875 299.636719 191.28125 C 299.015625 191.074219 298.441406 190.683594 297.980469 190.234375 C 297.519531 189.789062 297.132812 189.21875 296.972656 188.527344 C 296.746094 187.714844 296.980469 185.636719 296.980469 185.636719 " clip-rule="nonzero"/></clipPath><clipPath id="7d7f215ee8"><path d="M 315 171 L 332 171 L 332 188 L 315 188 Z M 315 171 " clip-rule="nonzero"/></clipPath><clipPath id="23ebe8ed7c"><path d="M 321.523438 168.25 L 335.199219 173.375 L 328.378906 191.5625 L 314.703125 186.433594 Z M 321.523438 168.25 " clip-rule="nonzero"/></clipPath><clipPath id="e4efa9dcf7"><path d="M 331.21875 173.914062 C 331.03125 180.46875 331.679688 181.1875 331.59375 182.179688 C 331.480469 183.230469 331.089844 184.652344 330.003906 185.476562 C 327.996094 187.042969 320.753906 188.21875 318.34375 187.65625 C 317.054688 187.308594 316.007812 186.507812 315.695312 185.640625 C 315.445312 184.796875 316.136719 183.144531 316.632812 182.578125 C 316.976562 182.226562 317.421875 181.984375 317.902344 182.027344 C 318.777344 182.152344 321.160156 183.730469 321.367188 184.695312 C 321.578125 185.457031 320.855469 186.621094 320.257812 187.078125 C 319.808594 187.523438 319.117188 187.671875 318.488281 187.644531 C 317.925781 187.636719 317.21875 187.441406 316.726562 187.050781 C 316.195312 186.578125 315.601562 185.332031 315.578125 184.640625 C 315.53125 184.007812 315.902344 183.394531 316.265625 182.988281 C 316.65625 182.519531 317.230469 182.117188 317.816406 182.066406 C 318.574219 181.941406 319.882812 182.226562 320.453125 182.78125 C 321.023438 183.335938 321.496094 184.539062 321.351562 185.304688 C 321.269531 186.089844 320.46875 187.089844 319.707031 187.417969 C 319.03125 187.710938 317.675781 187.542969 317.015625 187.226562 C 316.417969 186.933594 315.730469 185.925781 315.777344 185.808594 C 315.882812 185.710938 319.097656 187.53125 319.074219 187.589844 C 319.03125 187.710938 317.011719 187.429688 316.460938 186.816406 C 315.851562 186.175781 315.582031 184.4375 315.8125 183.636719 C 315.972656 183.011719 316.546875 182.613281 317.246094 182.261719 C 318.476562 181.628906 321.269531 181.175781 323.007812 181.078125 C 324.367188 181.039062 326.042969 180.917969 326.652344 181.554688 C 327.203125 182.171875 327.015625 184.558594 326.804688 184.550781 C 326.636719 184.621094 325.859375 183.101562 325.597656 181.910156 C 325.171875 179.839844 325.285156 174.625 325.914062 172.949219 C 326.207031 172.171875 326.570312 171.761719 327.101562 171.484375 C 327.570312 171.179688 328.386719 171.078125 328.929688 171.144531 C 329.53125 171.234375 330.210938 171.691406 330.617188 172.117188 C 331.003906 172.605469 331.21875 173.914062 331.21875 173.914062 " clip-rule="nonzero"/></clipPath></defs><g fill="#ff4000" fill-opacity="1"><g transform="translate(35.46317, 210.748683)"><g><path d="M 32.75 -48.984375 C 35.789062 -48.984375 38.5 -48.28125 40.875 -46.875 C 43.25 -45.476562 45.097656 -43.554688 46.421875 -41.109375 C 47.753906 -38.671875 48.421875 -35.929688 48.421875 -32.890625 L 48.421875 -31.96875 C 48.421875 -28.925781 47.753906 -26.171875 46.421875 -23.703125 C 45.097656 -21.242188 43.25 -19.3125 40.875 -17.90625 C 38.5 -16.507812 35.789062 -15.8125 32.75 -15.8125 L 21 -15.8125 L 21 0 L 5.265625 0 L 5.265625 -48.984375 Z M 21 -27.265625 L 27.484375 -27.265625 C 29.140625 -27.265625 30.382812 -27.691406 31.21875 -28.546875 C 32.050781 -29.398438 32.46875 -30.566406 32.46875 -32.046875 L 32.46875 -32.609375 C 32.46875 -34.128906 32.050781 -35.300781 31.21875 -36.125 C 30.382812 -36.957031 29.140625 -37.375 27.484375 -37.375 L 21 -37.375 Z M 21 -27.265625 "/></g></g></g><g fill="#ff4000" fill-opacity="1"><g transform="translate(82.804934, 210.748683)"><g><path d="M 23.703125 -38.453125 C 30.585938 -38.453125 35.84375 -36.835938 39.46875 -33.609375 C 43.101562 -30.378906 44.921875 -25.441406 44.921875 -18.796875 L 44.921875 -16.375 L 16.734375 -16.375 C 16.734375 -13.664062 17.335938 -11.625 18.546875 -10.25 C 19.753906 -8.875 21.664062 -8.1875 24.28125 -8.1875 C 26.65625 -8.1875 28.398438 -8.679688 29.515625 -9.671875 C 30.628906 -10.671875 31.1875 -12.003906 31.1875 -13.671875 L 44.921875 -13.671875 C 44.921875 -9.109375 43.1875 -5.546875 39.71875 -2.984375 C 36.257812 -0.421875 31.207031 0.859375 24.5625 0.859375 C 17.582031 0.859375 12.171875 -0.765625 8.328125 -4.015625 C 4.484375 -7.273438 2.5625 -12.203125 2.5625 -18.796875 C 2.5625 -25.253906 4.4375 -30.144531 8.1875 -33.46875 C 11.9375 -36.789062 17.109375 -38.453125 23.703125 -38.453125 Z M 24.28125 -29.40625 C 19.820312 -29.40625 17.328125 -27.289062 16.796875 -23.0625 L 30.625 -23.0625 C 30.625 -25.007812 30.0625 -26.550781 28.9375 -27.6875 C 27.820312 -28.832031 26.269531 -29.40625 24.28125 -29.40625 Z M 24.28125 -29.40625 "/></g></g></g><g fill="#ff4000" fill-opacity="1"><g transform="translate(126.231183, 210.748683)"><g><path d="M 27.125 -38.515625 C 28.21875 -38.515625 29.191406 -38.382812 30.046875 -38.125 C 30.898438 -37.863281 31.328125 -37.710938 31.328125 -37.671875 L 31.328125 -25.78125 L 26.765625 -25.78125 C 23.828125 -25.78125 21.703125 -25.019531 20.390625 -23.5 C 19.085938 -21.976562 18.4375 -19.722656 18.4375 -16.734375 L 18.4375 0 L 4.265625 0 L 4.265625 -37.59375 L 15.875 -37.59375 L 16.796875 -31.90625 C 17.648438 -34.082031 19.003906 -35.726562 20.859375 -36.84375 C 22.710938 -37.957031 24.800781 -38.515625 27.125 -38.515625 Z M 27.125 -38.515625 "/></g></g></g><g fill="#ff4000" fill-opacity="1"><g transform="translate(153.781751, 210.748683)"><g><path d="M 54.1875 -38.453125 C 58.457031 -38.453125 61.660156 -37.226562 63.796875 -34.78125 C 65.929688 -32.332031 67 -28.851562 67 -24.34375 L 67 0 L 52.828125 0 L 52.828125 -22.640625 C 52.828125 -24.253906 52.4375 -25.546875 51.65625 -26.515625 C 50.875 -27.492188 49.769531 -27.984375 48.34375 -27.984375 C 46.6875 -27.984375 45.332031 -27.410156 44.28125 -26.265625 C 43.238281 -25.128906 42.71875 -23.734375 42.71875 -22.078125 L 42.71875 0 L 28.546875 0 L 28.546875 -22.640625 C 28.546875 -24.253906 28.15625 -25.546875 27.375 -26.515625 C 26.59375 -27.492188 25.488281 -27.984375 24.0625 -27.984375 C 22.40625 -27.984375 21.050781 -27.410156 20 -26.265625 C 18.957031 -25.128906 18.4375 -23.734375 18.4375 -22.078125 L 18.4375 0 L 4.265625 0 L 4.265625 -37.59375 L 15.875 -37.59375 L 16.796875 -31.96875 C 18.222656 -33.957031 20.109375 -35.535156 22.453125 -36.703125 C 24.804688 -37.867188 27.289062 -38.453125 29.90625 -38.453125 C 35.550781 -38.453125 39.347656 -36.289062 41.296875 -31.96875 C 42.765625 -33.957031 44.648438 -35.535156 46.953125 -36.703125 C 49.253906 -37.867188 51.664062 -38.453125 54.1875 -38.453125 Z M 54.1875 -38.453125 "/></g></g></g><g fill="#ff4000" fill-opacity="1"><g transform="translate(220.914723, 210.748683)"><g><path d="M 31.546875 0 L 30.625 -5.703125 C 29.144531 -3.660156 27.207031 -2.054688 24.8125 -0.890625 C 22.414062 0.273438 19.890625 0.859375 17.234375 0.859375 C 12.867188 0.859375 9.59375 -0.347656 7.40625 -2.765625 C 5.21875 -5.191406 4.125 -8.6875 4.125 -13.25 L 4.125 -37.59375 L 18.296875 -37.59375 L 18.296875 -14.953125 C 18.296875 -13.335938 18.710938 -12.039062 19.546875 -11.0625 C 20.378906 -10.09375 21.550781 -9.609375 23.0625 -9.609375 C 24.820312 -9.609375 26.25 -10.175781 27.34375 -11.3125 C 28.4375 -12.457031 28.984375 -13.859375 28.984375 -15.515625 L 28.984375 -37.59375 L 43.15625 -37.59375 L 43.15625 0 Z M 31.546875 0 "/></g></g></g><g fill="#ff4000" fill-opacity="1"><g transform="translate(264.340962, 210.748683)"><g><path d="M 29.328125 -37.59375 L 29.328125 -27.984375 L 21.359375 -27.984375 L 21.359375 -13.671875 C 21.359375 -11.960938 21.640625 -10.71875 22.203125 -9.9375 C 22.773438 -9.15625 23.820312 -8.765625 25.34375 -8.765625 L 29.328125 -8.765625 L 29.328125 -0.421875 C 28.191406 -0.046875 26.722656 0.257812 24.921875 0.5 C 23.117188 0.738281 21.550781 0.859375 20.21875 0.859375 C 16.039062 0.859375 12.820312 0.0976562 10.5625 -1.421875 C 8.3125 -2.941406 7.1875 -5.53125 7.1875 -9.1875 L 7.1875 -27.984375 L 1.921875 -27.984375 L 1.921875 -37.59375 L 7.765625 -37.59375 L 10.828125 -48.984375 L 21.359375 -48.984375 L 21.359375 -37.59375 Z M 29.328125 -37.59375 "/></g></g></g><g fill="#ff4000" fill-opacity="1"><g transform="translate(291.892841, 210.748683)"><g/></g></g><g fill="#ff4000" fill-opacity="1"><g transform="translate(311.541163, 210.748683)"><g/></g></g><g fill="#ff4000" fill-opacity="1"><g transform="translate(331.189486, 210.748683)"><g/></g></g><g fill="#ff4000" fill-opacity="1"><g transform="translate(350.837806, 210.748683)"><g/></g></g><g clip-path="url(#8637a33a82)"><g clip-path="url(#bc98e97856)"><g clip-path="url(#4ad8f1f975)"><path fill="#feefdd" d="M 340.824219 201.417969 L 307.691406 219.617188 L 294.714844 195.992188 L 327.847656 177.792969 Z M 340.824219 201.417969 " fill-opacity="1" fill-rule="nonzero"/></g></g></g><g clip-path="url(#14c247b9cb)"><g clip-path="url(#60c80e026a)"><g clip-path="url(#5ade7b9fc3)"><path fill="#feefdd" d="M 309.574219 215.070312 L 291.234375 208.230469 L 299.757812 185.378906 L 318.097656 192.21875 Z M 309.574219 215.070312 " fill-opacity="1" fill-rule="nonzero"/></g></g></g><g clip-path="url(#6415369b9c)"><g clip-path="url(#c1d03323b4)"><g clip-path="url(#71c58eddef)"><path fill="#feefdd" d="M 288.675781 178.636719 L 321.839844 160.5 L 334.773438 184.148438 L 301.609375 202.285156 Z M 288.675781 178.636719 " fill-opacity="1" fill-rule="nonzero"/></g></g></g><g clip-path="url(#7d7f215ee8)"><g clip-path="url(#23ebe8ed7c)"><g clip-path="url(#e4efa9dcf7)"><path fill="#feefdd" d="M 319.949219 165.042969 L 338.277344 171.917969 L 329.710938 194.753906 L 311.382812 187.882812 Z M 319.949219 165.042969 " fill-opacity="1" fill-rule="nonzero"/></g></g></g></svg>